<svg width="597" height="540" viewBox="0 0 597 540" fill="none" xmlns="http://www.w3.org/2000/svg">
<g id="click2eat">
<path id="fork" d="M61.3699 166.171C58.2728 162.12 60.5945 156.437 62.1425 154.102C77.1551 124.298 135.157 59.738 247.065 39.9232C274.736 34.0799 346.388 29.7756 411.627 59.3048C412.707 59.4257 414.728 58.9178 416.172 57.4979C418.991 54.7262 432.695 40.9201 445.263 42.4232C475.16 51.1717 528.003 106.031 550.688 132.367C551.9 134.465 553.59 139.716 550.646 143.94C547.703 148.164 544.02 145.096 542.546 143.033C518.499 108.93 484.018 81.4919 470.059 72.5974C467.706 70.9191 462.478 68.4302 460.391 71.9014C458.304 75.3725 460.153 78.0492 461.338 78.9536C492.925 100.286 523.924 137.045 535.475 152.758C538.3 155.968 540.325 159.765 535.773 163.886C531.22 168.007 528.059 165.853 527.047 164.26C515.182 149.58 483.134 113.519 455.448 94.5024C453.078 92.6935 447.904 90.0113 446.172 93.7538C444.441 97.4963 446.71 100.728 448.061 101.876C492.039 138.249 513.174 164.926 519.478 173.254C522.988 177.889 518.85 181.448 515.647 183.341C513.205 186.541 509.612 182.955 508.12 180.762C494.937 163.387 452.341 124.834 431.217 110.121C422.187 109.419 423.349 114.9 425.058 117.729C434.942 125.974 499.41 184.22 500.318 190.983C500.897 195.293 496.458 197.884 493.376 198.696C490.762 199.385 488.777 198.117 487.966 197.03C474.123 183.067 440.817 150.712 418.332 132.991C395.847 115.27 391.025 108.871 391.424 107.887C387.822 100.074 392.209 89.9656 394.853 85.8879C396.626 82.4589 396.075 80.1397 395.578 79.4088C353.26 58.3683 306.055 52.7578 252.649 60.7117C218.223 65.8388 181.052 78.3145 143.819 102.848C118.666 117.214 95.8973 137.824 75.3886 166.593C71.2732 172.18 64.3281 168.64 61.3699 166.171Z" fill="#FDFEFF" stroke="#EEF1F5" stroke-linecap="round" stroke-linejoin="round"/>
<g id="spoon">
<path fill-rule="evenodd" clip-rule="evenodd" d="M194.689 500.149C135.583 531.44 33.8322 463.569 62.6408 400.967C95.4311 348.107 204.563 398.583 215.719 476.061C377.332 511.931 497.687 407.522 518.033 363.761C519.574 362.188 520.725 360.627 521.761 359.221C525.009 354.815 527.124 351.946 536.554 355.077C546.484 358.375 544.889 366.198 542.348 371.435C484.387 458.435 360.109 529.626 212.374 497.603C204.159 495.822 197.373 497.9 194.689 500.149ZM73.4269 416.176C61.7736 419.061 73.8848 449.205 97.7308 468.551C113.57 483.033 144.242 494.776 168.99 491.815C174.461 489.831 176.607 482.99 169.519 480.564C167.678 479.557 165.179 479.56 161.776 479.563C158.28 479.566 153.83 479.571 148.158 478.482C136.725 476.69 123.375 470.422 114.331 464.442C97.0772 453.032 83.0777 438.426 80.5919 421.162C80.4298 420.154 79.7088 418.526 79.0796 417.941C76.8121 415.832 74.2569 415.971 73.4269 416.176Z" fill="#FDFEFF"/>
<path d="M62.6408 400.967L62.2159 400.703C62.205 400.721 62.1953 400.739 62.1866 400.758L62.6408 400.967ZM194.689 500.149L194.922 500.591C194.953 500.575 194.983 500.555 195.01 500.533L194.689 500.149ZM215.719 476.061L215.224 476.132C215.254 476.338 215.407 476.504 215.61 476.549L215.719 476.061ZM518.033 363.761L517.676 363.411C517.636 363.452 517.604 363.499 517.58 363.55L518.033 363.761ZM521.761 359.221L521.358 358.925L521.358 358.925L521.761 359.221ZM536.554 355.077L536.711 354.603L536.711 354.603L536.554 355.077ZM542.348 371.435L542.764 371.712C542.776 371.693 542.788 371.674 542.797 371.653L542.348 371.435ZM212.374 497.603L212.268 498.091L212.268 498.091L212.374 497.603ZM97.7308 468.551L98.0682 468.182C98.061 468.175 98.0535 468.169 98.0458 468.163L97.7308 468.551ZM73.4269 416.176L73.5471 416.662L73.5471 416.662L73.4269 416.176ZM168.99 491.815L169.049 492.312C169.087 492.307 169.124 492.298 169.16 492.285L168.99 491.815ZM169.519 480.564L169.279 481.003C169.304 481.016 169.33 481.028 169.357 481.037L169.519 480.564ZM161.776 479.563L161.777 480.063L161.777 480.063L161.776 479.563ZM148.158 478.482L148.253 477.991C148.247 477.99 148.242 477.989 148.236 477.988L148.158 478.482ZM114.331 464.442L114.607 464.025L114.607 464.025L114.331 464.442ZM80.5919 421.162L81.0868 421.091L81.0855 421.082L80.5919 421.162ZM79.0796 417.941L79.4201 417.575L79.4201 417.575L79.0796 417.941ZM62.1866 400.758C47.6322 432.385 66.1028 465.237 95.4062 486.174C124.716 507.117 165.138 516.359 194.922 500.591L194.455 499.707C165.133 515.23 125.128 506.182 95.9876 485.361C66.8413 464.535 48.8408 432.151 63.095 401.176L62.1866 400.758ZM216.214 475.989C210.606 437.043 180.392 404.934 147.509 389.186C131.061 381.31 113.905 377.505 98.7744 379.007C83.6308 380.511 70.5091 387.334 62.2159 400.703L63.0657 401.231C71.1677 388.17 83.9837 381.481 98.8732 380.003C113.776 378.523 130.748 382.269 147.077 390.088C179.746 405.733 209.676 437.601 215.224 476.132L216.214 475.989ZM517.58 363.55C512.532 374.408 501.246 389.088 484.601 404.446C467.964 419.798 445.999 435.805 419.623 449.328C366.874 476.373 296.501 493.478 215.827 475.573L215.61 476.549C296.55 494.513 367.161 477.349 420.079 450.218C446.537 436.652 468.577 420.593 485.279 405.181C501.973 389.777 513.362 374.995 518.487 363.972L517.58 363.55ZM521.358 358.925C520.321 360.331 519.189 361.866 517.676 363.411L518.39 364.111C519.958 362.51 521.128 360.922 522.163 359.518L521.358 358.925ZM536.711 354.603C531.96 353.025 528.93 352.914 526.648 353.861C524.382 354.801 522.962 356.749 521.358 358.925L522.163 359.518C523.807 357.288 525.069 355.598 527.031 354.784C528.976 353.978 531.718 353.998 536.396 355.552L536.711 354.603ZM542.797 371.653C544.083 369.003 545.172 365.621 544.62 362.443C544.058 359.206 541.817 356.298 536.711 354.603L536.396 355.552C541.222 357.154 543.148 359.807 543.635 362.614C544.133 365.482 543.153 368.63 541.898 371.217L542.797 371.653ZM212.268 498.091C360.224 530.162 484.701 458.866 542.764 371.712L541.932 371.158C484.074 458.004 359.995 529.089 212.48 497.114L212.268 498.091ZM195.01 500.533C196.266 499.48 198.545 498.424 201.55 497.856C204.545 497.29 208.227 497.216 212.268 498.091L212.48 497.114C208.305 496.209 204.488 496.283 201.364 496.874C198.252 497.462 195.796 498.569 194.367 499.766L195.01 500.533ZM98.0458 468.163C86.1823 458.538 77.2428 446.229 72.724 435.989C70.4617 430.862 69.3278 426.3 69.4545 422.875C69.5177 421.166 69.8935 419.773 70.567 418.733C71.2331 417.705 72.2095 416.993 73.5471 416.662L73.3068 415.691C71.731 416.081 70.5367 416.941 69.7278 418.19C68.9262 419.427 68.5227 421.013 68.4551 422.838C68.3204 426.481 69.5196 431.204 71.8092 436.393C76.3942 446.783 85.4333 459.218 97.4158 468.939L98.0458 468.163ZM168.93 491.319C156.651 492.788 142.874 490.61 130.182 486.251C117.49 481.892 105.926 475.367 98.0682 468.182L97.3934 468.92C105.374 476.217 117.066 482.804 129.857 487.197C142.648 491.59 156.581 493.803 169.049 492.312L168.93 491.319ZM169.357 481.037C171.055 481.618 172.151 482.447 172.786 483.353C173.418 484.255 173.619 485.269 173.469 486.282C173.167 488.328 171.417 490.403 168.819 491.345L169.16 492.285C172.033 491.243 174.092 488.906 174.458 486.428C174.643 485.18 174.393 483.905 173.605 482.78C172.82 481.659 171.526 480.723 169.681 480.091L169.357 481.037ZM161.777 480.063C163.486 480.061 164.934 480.06 166.185 480.182C167.432 480.304 168.442 480.545 169.279 481.003L169.759 480.125C168.755 479.576 167.594 479.315 166.282 479.187C164.972 479.059 163.47 479.061 161.776 479.063L161.777 480.063ZM148.064 478.973C153.786 480.071 158.277 480.066 161.777 480.063L161.776 479.063C158.284 479.066 153.874 479.07 148.253 477.991L148.064 478.973ZM114.055 464.859C123.136 470.864 136.555 477.169 148.081 478.976L148.236 477.988C136.896 476.211 123.613 469.98 114.607 464.025L114.055 464.859ZM80.097 421.233C82.6143 438.716 96.7689 453.427 114.055 464.859L114.607 464.025C97.3856 452.636 83.5411 438.136 81.0868 421.091L80.097 421.233ZM78.7391 418.307C78.9798 418.531 79.2844 419.011 79.5568 419.602C79.824 420.182 80.0266 420.796 80.0982 421.241L81.0855 421.082C80.995 420.519 80.756 419.815 80.465 419.184C80.1791 418.563 79.8086 417.936 79.4201 417.575L78.7391 418.307ZM73.5471 416.662C74.2579 416.486 76.6254 416.341 78.7391 418.307L79.4201 417.575C76.9987 415.323 74.2559 415.456 73.3068 415.691L73.5471 416.662Z" fill="#EEF1F5"/>
</g>
<path id="Click2Eat" d="M60.368 250.128C69.2533 242.68 75.264 233.207 78.4 221.708C81.2747 210.993 80.2293 203.545 75.264 199.364C73.0427 197.535 70.168 196.685 66.64 196.816C60.76 197.077 55.664 199.756 51.352 204.852C47.1707 209.948 43.904 216.873 41.552 225.628C39.2 234.252 37.436 243.399 36.26 253.068C35.2147 262.737 34.6267 273.321 34.496 284.82C33.712 332.775 40.0493 357.079 53.508 357.732C59.1267 357.993 64.2227 354.857 68.796 348.324C73.3693 341.791 76.832 334.277 79.184 325.784C81.536 317.291 82.9733 308.928 83.496 300.696C83.3653 297.691 84.6067 295.796 87.22 295.012C89.964 294.228 91.7933 295.208 92.708 297.952C93.1 298.867 93.2307 299.977 93.1 301.284C92.5773 320.231 88.396 335.453 80.556 346.952C72.8467 358.451 63.2427 364.657 51.744 365.572C33.8427 366.879 20.2533 358.32 10.976 339.896C2.22133 322.779 -1.176 301.611 0.784 276.392C2.87467 250.651 9.86533 229.352 21.756 212.496C33.2547 196.424 47.3013 188.192 63.896 187.8C73.1733 187.539 79.8373 190.152 83.888 195.64C87.9387 201.128 89.4413 207.661 88.396 215.24C87.4813 222.819 85.064 230.528 81.144 238.368C77.224 246.077 72.5853 252.023 67.228 256.204C66.052 257.38 64.6147 257.707 62.916 257.184C61.348 256.661 60.3027 255.747 59.78 254.44C59.2573 253.003 59.4533 251.565 60.368 250.128ZM96.5514 195.444C96.8128 191.655 99.1648 189.041 103.607 187.604C108.703 186.036 112.885 186.951 116.151 190.348C118.765 193.092 119.81 196.947 119.287 201.912C118.503 208.184 117.458 228.699 116.151 263.456C114.975 298.083 115.041 317.421 116.347 321.472C119.222 324.739 123.273 321.472 128.499 311.672C133.726 301.741 138.757 287.564 143.591 269.14C143.983 267.572 144.767 266.592 145.943 266.2C147.119 265.808 148.099 266.069 148.883 266.984C149.667 267.899 149.863 269.205 149.471 270.904C142.677 295.469 136.209 312.521 130.067 322.06C124.057 331.599 117.066 336.041 109.095 335.388C106.482 335.127 104.195 333.755 102.235 331.272C100.275 328.789 98.7074 325.065 97.5314 320.1C96.3554 315.004 95.3754 309.908 94.5914 304.812C93.9381 299.716 93.5461 293.052 93.4154 284.82C93.2848 276.457 93.2194 269.336 93.2194 263.456C93.2194 257.445 93.4808 249.54 94.0034 239.74C94.5261 229.809 94.9181 222.296 95.1794 217.2C95.4408 212.104 95.8981 204.852 96.5514 195.444ZM136.551 257.576C136.812 253.917 139.164 251.369 143.607 249.932C148.703 248.364 152.884 249.279 156.151 252.676C158.764 255.289 159.809 259.079 159.287 264.044C159.287 264.436 159.091 266.2 158.699 269.336C158.307 272.341 157.849 276.327 157.327 281.292C156.804 286.257 156.347 291.288 155.955 296.384C155.563 300.827 155.301 303.832 155.171 305.4C155.171 306.837 155.105 309.059 154.975 312.064C154.844 314.939 154.909 317.095 155.171 318.532C155.563 319.969 156.085 321.08 156.739 321.864C159.744 325 163.86 321.668 169.087 311.868C174.313 302.068 179.279 287.956 183.983 269.532C184.375 267.833 185.159 266.788 186.335 266.396C187.511 266.004 188.491 266.331 189.275 267.376C190.059 268.291 190.255 269.532 189.863 271.1C183.068 295.796 176.6 312.913 170.459 322.452C164.448 331.991 157.457 336.368 149.487 335.584C143.476 335.061 139.229 332.775 136.747 328.724C134.395 324.673 133.284 318.532 133.415 310.3C133.545 301.937 134.068 291.223 134.983 278.156C135.244 275.281 135.44 273.06 135.571 271.492C135.701 269.924 135.832 267.833 135.963 265.22C136.224 262.476 136.42 259.928 136.551 257.576ZM164.971 219.748C164.317 222.753 162.619 225.759 159.875 228.764C157.131 231.639 154.321 233.076 151.447 233.076C148.703 233.076 146.612 231.704 145.175 228.96C143.737 226.085 143.019 223.015 143.019 219.748C143.019 213.215 145.632 208.968 150.859 207.008C155.432 205.309 159.287 205.963 162.423 208.968C165.036 211.712 165.885 215.305 164.971 219.748ZM196.775 281.292C200.303 276.849 201.675 273.387 200.891 270.904C200.629 269.859 199.976 269.467 198.931 269.728C197.232 270.12 195.729 272.537 194.423 276.98C193.247 281.423 192.528 286.584 192.267 292.464C191.744 300.304 192.071 306.184 193.247 310.104C194.553 313.893 196.383 315.592 198.735 315.2C201.087 314.677 203.635 312.783 206.379 309.516C209.253 306.249 211.997 301.937 214.611 296.58C217.224 291.484 220.556 282.207 224.607 268.748C225.129 267.311 225.913 266.461 226.959 266.2C228.135 265.939 229.049 266.331 229.703 267.376C230.487 268.291 230.683 269.532 230.291 271.1C220.621 304.289 209.123 321.341 195.795 322.256C188.608 322.779 182.924 320.819 178.743 316.376C174.561 311.933 172.34 305.661 172.079 297.56C171.817 287.237 174.169 278.875 179.135 272.472C184.1 266.069 189.784 262.868 196.187 262.868C201.283 262.868 204.745 264.501 206.575 267.768C208.404 270.904 207.816 276.196 204.811 283.644C203.112 287.303 201.021 288.479 198.539 287.172C196.448 286.257 195.664 284.689 196.187 282.468C196.317 282.076 196.513 281.684 196.775 281.292ZM268.835 267.18L256.095 290.7C256.226 291.353 256.683 293.248 257.467 296.384C258.251 299.389 258.839 301.611 259.231 303.048C259.623 304.355 260.407 306.576 261.583 309.712C262.89 312.717 264.197 315.331 265.503 317.552C266.941 319.643 268.835 322.191 271.187 325.196C273.67 328.332 276.414 331.403 279.419 334.408C282.947 337.675 283.927 341.333 282.359 345.384C281.183 348.781 279.158 350.153 276.283 349.5C273.278 348.977 270.534 346.299 268.051 341.464C266.483 338.459 264.915 335.388 263.347 332.252C261.91 329.116 260.734 326.503 259.819 324.412C259.035 322.321 258.121 319.708 257.075 316.572C256.03 313.305 255.311 311.215 254.919 310.3C254.658 309.255 254.005 307.099 252.959 303.832C252.045 300.565 251.587 298.867 251.587 298.736C244.27 311.672 240.089 318.597 239.043 319.512C230.289 327.744 223.821 327.156 219.639 317.748C216.373 310.3 215.066 297.887 215.719 280.508C217.679 230.724 218.659 205.505 218.659 204.852C219.051 197.404 221.795 192.373 226.891 189.76C231.726 187.147 236.103 187.996 240.023 192.308C244.074 197.143 245.969 204.591 245.707 214.652C245.315 226.543 244.597 242.811 243.551 263.456C242.506 284.101 241.918 295.469 241.787 297.56C248.974 283.971 253.874 273.517 256.487 266.2C258.055 261.757 260.799 259.144 264.719 258.36C267.855 257.707 269.75 258.687 270.403 261.3C270.665 262.868 270.142 264.828 268.835 267.18ZM282.608 236.408C289.01 223.472 299.006 214.652 312.596 209.948C325.009 205.636 336.05 206.028 345.72 211.124C356.173 216.481 360.942 225.693 360.028 238.76C358.721 259.797 342.388 285.408 311.028 315.592C318.606 312.456 324.813 310.627 329.648 310.104C334.613 309.581 340.689 310.235 347.876 312.064C353.886 314.808 358.329 318.663 361.204 323.628C364.209 328.463 364.928 333.036 363.36 337.348C361.792 341.66 358.002 344.339 351.992 345.384C350.554 345.645 349.182 345.319 347.876 344.404C346.7 343.62 345.981 342.509 345.72 341.072C343.106 335.976 338.01 332.383 330.431 330.292C322.984 328.332 315.209 328.136 307.108 329.704C299.137 331.272 292.996 334.277 288.684 338.72C282.02 345.515 277.25 347.932 274.375 345.972C272.415 344.665 272.35 342.248 274.179 338.72C274.833 337.544 275.682 336.499 276.727 335.584C306.389 307.36 322.918 281.227 326.316 257.184C328.276 243.987 326.054 233.991 319.652 227.196C314.817 222.231 309.59 221.055 303.972 223.668C298.484 226.151 294.76 231.835 292.8 240.72C291.754 241.896 290.252 242.549 288.292 242.68C286.462 242.68 284.829 242.092 283.392 240.916C281.954 239.609 281.693 238.107 282.608 236.408ZM425.452 250.324C434.337 242.876 440.348 233.403 443.484 221.904C446.358 211.189 445.313 203.741 440.348 199.56C438.126 197.731 435.252 196.881 431.724 197.012C415.913 197.535 405.852 215.763 401.54 251.696C399.58 268.16 400.037 279.659 402.912 286.192C405.786 292.333 410.556 295.077 417.22 294.424C426.366 293.509 431.005 294.685 431.136 297.952C431.266 300.435 429.176 302.721 424.864 304.812C422.512 305.857 419.964 306.511 417.22 306.772C411.993 307.164 408.269 309.385 406.048 313.436C403.826 317.356 402.52 323.497 402.128 331.86C401.736 339.177 403.108 344.796 406.244 348.716C409.38 352.767 413.365 354.923 418.2 355.184C426.432 355.576 433.357 349.892 438.976 338.132C444.594 326.372 447.796 313.893 448.58 300.696C448.449 298.605 449.233 296.972 450.932 295.796C452.63 294.62 454.264 294.555 455.832 295.6C457.53 296.515 458.314 298.409 458.184 301.284C457.661 320.231 453.545 335.519 445.836 347.148C438.126 358.777 428.457 364.919 416.828 365.572C404.545 366.487 394.353 364.069 386.252 358.32C378.15 352.701 373.969 344.796 373.708 334.604C373.577 325.327 376.452 317.487 382.332 311.084C388.342 304.681 398.012 301.284 411.34 300.892C404.676 301.023 398.796 300.173 393.7 298.344C388.604 296.384 384.618 293.705 381.744 290.308C379 286.911 376.713 283.317 374.884 279.528C373.054 275.739 371.878 271.688 371.356 267.376C370.964 262.933 370.702 259.144 370.572 256.008C370.572 252.872 370.768 249.932 371.16 247.188C373.642 227.719 380.176 212.627 390.76 201.912C401.474 191.067 414.214 186.363 428.98 187.8C438.257 188.715 444.921 192.047 448.972 197.796C453.022 203.415 454.525 209.883 453.48 217.2C452.565 224.387 450.148 231.639 446.228 238.956C442.308 246.143 437.604 251.892 432.116 256.204C431.07 257.511 429.698 257.903 428 257.38C426.432 256.857 425.386 255.943 424.864 254.636C424.341 253.199 424.537 251.761 425.452 250.324ZM469.233 272.864C471.585 267.245 475.701 264.044 481.581 263.26C487.461 262.345 492.688 264.24 497.261 268.944C497.261 268.552 497.327 265.873 497.457 260.908C497.588 255.943 497.719 252.219 497.849 249.736C498.111 246.077 500.463 243.529 504.905 242.092C510.132 240.393 514.379 241.243 517.645 244.64C520.259 247.253 521.239 251.108 520.585 256.204C520.585 256.465 520.324 258.817 519.801 263.26C519.279 267.703 518.691 273.125 518.037 279.528C517.384 285.8 516.861 291.484 516.469 296.58C515.163 311.607 515.424 320.035 517.253 321.864C520.128 325.131 524.179 321.929 529.405 312.26C534.632 302.199 539.663 287.956 544.497 269.532C544.889 267.964 545.673 266.984 546.849 266.592C548.025 266.2 549.005 266.527 549.789 267.572C550.573 268.487 550.769 269.728 550.377 271.296C543.583 295.992 537.115 313.175 530.973 322.844C524.963 332.513 517.972 336.825 510.001 335.78C498.633 334.343 493.668 323.693 495.105 303.832C493.276 309.973 491.251 314.547 489.029 317.552C486.808 320.557 483.999 322.125 480.601 322.256C475.505 322.517 471.585 319.839 468.841 314.22C466.097 308.471 464.856 301.676 465.117 293.836C465.248 285.996 466.62 279.005 469.233 272.864ZM495.497 274.628C490.532 270.577 487.396 273.713 486.089 284.036C485.567 287.564 485.371 291.615 485.501 296.188C485.501 305.335 486.024 309.908 487.069 309.908C488.115 309.777 489.879 306.053 492.361 298.736C494.321 293.117 495.693 287.891 496.477 283.056C496.869 282.272 497.065 280.116 497.065 276.588C496.673 276.327 496.151 275.673 495.497 274.628ZM536.94 225.236C537.202 221.447 539.619 218.899 544.192 217.592C549.55 216.024 553.862 217.004 557.128 220.532C559.48 223.145 560.395 226.869 559.872 231.704C559.742 232.749 559.546 235.624 559.284 240.328C560.983 240.197 564.054 240.001 568.496 239.74C572.939 239.479 576.206 239.283 578.296 239.152C579.995 238.499 581.367 238.564 582.412 239.348C583.588 240.001 584.046 240.981 583.784 242.288C583.523 243.464 582.543 244.379 580.844 245.032C571.959 246.861 564.642 248.168 558.892 248.952C558.108 264.632 557.586 279.593 557.324 293.836C557.063 307.948 557.39 317.095 558.304 321.276C561.31 324.543 565.426 321.276 570.652 311.476C575.879 301.545 580.844 287.368 585.548 268.944C585.94 267.376 586.724 266.396 587.9 266.004C589.076 265.612 590.056 265.939 590.84 266.984C591.624 267.899 591.82 269.14 591.428 270.708C584.634 295.404 578.166 312.521 572.024 322.06C566.014 331.599 559.023 335.976 551.052 335.192C548.178 334.931 545.63 333.755 543.408 331.664C541.318 329.573 539.619 326.503 538.312 322.452C537.136 318.401 536.222 314.089 535.568 309.516C534.915 304.812 534.523 299.128 534.392 292.464C534.262 285.669 534.327 279.201 534.588 273.06C534.719 266.919 534.98 259.732 535.372 251.5C534.327 251.631 533.282 251.696 532.236 251.696C531.06 251.696 529.884 251.696 528.708 251.696C523.351 251.957 520.411 250.324 519.888 246.796C519.496 243.921 520.738 241.7 523.612 240.132C524.919 239.479 526.356 239.217 527.924 239.348C528.708 239.479 531.452 239.675 536.156 239.936L536.94 225.236Z" fill="#FDFEFF"/>
</g>
</svg>
