<svg width="514" height="512" viewBox="0 0 514 512" fill="none" xmlns="http://www.w3.org/2000/svg">
<path fill-rule="evenodd" clip-rule="evenodd" d="M122 0.665999C114.961 1.424 98.479 5.23 91.581 7.69C72.264 14.581 56.081 24.917 40.999 39.999C21.838 59.161 10.588 79.411 4.33499 106C1.25899 119.079 -0.113013 150.426 1.97799 159.826C5.86299 177.286 19.465 190.872 36.72 194.529C46.892 196.684 467.108 196.684 477.28 194.529C494.854 190.805 508.341 177.067 512.096 159.065C514.068 149.613 512.651 118.699 509.665 106C503.424 79.462 491.783 58.588 472.572 39.483C453.94 20.953 434.004 9.918 407 3.188L396.5 0.569999L261 0.429999C186.475 0.352999 123.925 0.458999 122 0.665999ZM242.004 75.496L231.53 86.006L216.765 71.265C208.644 63.158 202 56.122 202 55.63C202 55.138 206.53 50.215 212.067 44.689L222.135 34.643L237.306 49.815L252.478 64.986L242.004 75.496ZM137.007 90.507L147.478 101.014L132.24 116.252L117.002 131.49L106.26 120.748L95.518 110.007L110.497 95.003C118.735 86.752 125.714 80 126.005 80C126.297 80 131.248 84.728 137.007 90.507ZM363.007 90.507L373.478 101.014L358.24 116.252L343.002 131.49L332.26 120.748L321.518 110.007L336.497 95.003C344.735 86.752 351.714 80 352.005 80C352.297 80 357.248 84.728 363.007 90.507ZM14.5 227.866C6.72899 231.405 1.01099 240.151 1.01099 248.5C1.01099 257.486 8.35799 267.627 16.5 269.882C19.08 270.596 33.224 270.991 56.347 270.994L92.194 271L89.051 267.25C80.764 257.361 76.323 250.479 70.659 238.75L64.503 226L41.501 226.022C21.411 226.041 17.994 226.274 14.5 227.866ZM98 226.692C98 229.341 107.589 242.753 113.949 249C129.87 264.638 149.293 272.01 171 270.654C190.497 269.435 205.486 262.604 219.521 248.54C225.254 242.795 229.72 237.262 231.771 233.36C233.547 229.983 235 226.946 235 226.61C235 226.275 204.175 226 166.5 226C128.825 226 98 226.311 98 226.692ZM264.941 234.209C260.751 244.205 252.571 257.506 245.852 265.25L240.863 271L367.181 270.994C455.529 270.991 494.702 270.66 497.5 269.895C500.052 269.196 503.136 267.115 506.019 264.143C514.861 255.031 515.33 242.809 507.183 233.773C499.649 225.416 509.843 226.047 381.941 226.022L268.382 226L264.941 234.209ZM16.759 302.423C11.59 304.268 8.56299 306.395 5.62499 310.248C-2.63901 321.081 1.02499 337.345 13.081 343.353L18.393 346H79.813H141.233L140.62 343.75C137.828 333.5 136.862 325.051 137.168 313.539L137.5 300.997L79 301.042C32.837 301.078 19.711 301.369 16.759 302.423ZM168.345 302.25C166.982 304.453 166.717 321.88 167.949 328.295C169.985 338.897 176.189 350.29 184.351 358.415C194.876 368.892 206.395 374.461 220.498 375.892L226.496 376.5L227.238 382.461C230.379 407.684 247.067 427.343 271.5 434.604C284.937 438.597 303.839 436.177 316.808 428.804C323.477 425.013 333.049 416.212 336.588 410.618L339.291 406.346L348.396 406.255C374.479 405.994 397.011 388.977 405.005 363.5C407.527 355.463 408.087 340.29 406.121 333.275C404.947 329.089 404.977 329 409.339 323.645C413.976 317.951 418.633 309.083 419.647 304.016L420.25 301H294.684C195.31 301 168.957 301.261 168.345 302.25ZM451.537 302.181C451.289 302.907 450.351 306.425 449.454 310C447.676 317.083 442.365 329.274 438.997 334.004C437.259 336.445 436.997 337.8 437.551 341.492L438.227 346H466.917H495.607L500.751 343.437C516.743 335.468 516.834 313.025 500.911 304C496.628 301.573 495.852 301.491 474.245 301.181C456.498 300.927 451.898 301.13 451.537 302.181ZM41.736 377C18.202 380.015 0.999987 399.684 0.999987 423.579C0.999987 431.975 3.43999 445.311 6.59599 454.162C11.583 468.15 18.716 478.82 30.237 489.526C41.312 499.817 51.582 505.445 67.121 509.738C73.106 511.391 84.828 511.5 257 511.5C459.158 511.5 443.391 511.961 459.158 505.592C479.765 497.269 499.146 476.891 506.939 455.355C512.664 439.534 514.395 422.777 511.467 411.535C507.379 395.841 496.58 384.308 480.946 378.94C475.364 377.024 471.731 376.661 453.841 376.232L433.182 375.737L429.715 383.24C416.907 410.962 391.898 430.366 362.724 435.216C356.096 436.319 355.005 436.863 349.5 441.814C323.188 465.481 290.826 472.616 258.521 461.871C244.663 457.262 235.071 451.357 224.134 440.702C213.984 430.813 207.911 421.308 201.163 404.75C200.547 403.238 199.438 402 198.699 402C196.542 402 179.934 393.531 174.769 389.798C172.168 387.917 167.553 384.043 164.514 381.189L158.989 376L103.244 376.131C72.585 376.203 44.906 376.594 41.736 377Z" fill="black"/>
</svg>
